<?xml version="1.0" standalone="no"?><!DOCTYPE svg PUBLIC "-//W3C//DTD SVG 1.1//EN" "http://www.w3.org/Graphics/SVG/1.1/DTD/svg11.dtd"><svg t="1630765025324" class="icon" viewBox="0 0 1024 1024" version="1.1" xmlns="http://www.w3.org/2000/svg" p-id="2749" xmlns:xlink="http://www.w3.org/1999/xlink" width="200" height="200"><defs><style type="text/css"></style></defs><path d="M848.6 666.3c-25.2-9.4-55.4-16.4-87.4-23.9-152.6-35.7-361.6-84.5-375.9-456.6-2.5-65.9-5.3-94.2-22.7-109.7-14.7-13-33.2-11.5-58.9-9.3 0 0-23.1 0.1-28.1 6.6-3.2 4.2-0.3 16.7-0.3 16.7 9.6 48.1 11.5 100.2 4.1 109.4-133 158.2-165.5 231.9-165.5 375.8 0 145.2 123.2 257.7 161 288.7 79.3 65.2 160.6 84.5 195.2 92.8 40.6 9.7 78.4 13.6 113 13.6 150.4 0 241-74.3 242.1-75.2 7.7-6.7 24.3-21.1 23.3-38 45.4-16.1 105-49.1 113.9-90.2 8.9-41.6-29.8-75.6-113.8-100.7zM478.8 920.2c-34.9-8.3-107.5-25.6-180.1-85.3-34.6-28.4-147.3-131-147.3-259.7 0-52.3 4.5-94.1 17.4-134.7C176.5 563 217 656.9 289.7 720.1 409 823.7 553.2 878.8 698.3 878.8c32.6 0 65.2-3 97.6-8.6-24.2 17.2-142.6 91.6-317.1 50z m447-162.2c-4.7 31.3-92 68.3-117.4 72.2h-0.8v-0.2c-0.5 0.1-1 0.2-1.4 0.3-1.6 0-3.2 0-4.9 0.1v0.8c-169.2 33.2-346.3-17.3-487-139.5-79.1-68.7-115.5-180.1-108.4-331.2 23.6-39.4 56.5-82.6 102.2-136.9 19.4-23 14-81.8 7.8-120.1 10.1-0.7 19.8-1 21.8 0.8 7.2 6.4 9 54.3 10.1 83C363.2 587.9 597.5 642.7 752.6 679c30.8 7.2 59.9 14 84 22.9 68.9 20.6 91.3 42.5 89.2 56.1z" fill="#25F48D" p-id="2750"></path><path d="M338.8 573.9c-49.4-76-51.5-149.6-52.9-198.3-0.1-5.1-0.3-10-0.5-14.6-0.4-11.1-11.2-19.4-23.2-18.2l-0.6 0.1c-10.9 1.1-19.1 9.6-18.7 19.7 0.2 4.4 0.3 9.1 0.4 14.1 1.5 52.8 3.7 132.7 58.9 217.4 12.4 19.1 29.5 38.1 47.8 53.4 9.1 7.7 23.5 6.1 30.8-3l0.4-0.4c6.5-8.1 4.9-19.1-3.1-25.9-13.1-11.3-27.8-26.6-39.3-44.3z" fill="#25F48D" p-id="2751"></path></svg>